Simulation
nRows=32
nColumns=15
endheader
time  TH_x TH_y TH_z SC_y  SC_z  SC_x  AC_y  AC_z  AC_x  GH_y  GH_z  GH_yy  EL_x  PS_y
5.745  0.000000  0.000000  0.000000  -52.18399740804396  16.925379672370877  22.409395809124188  57.01387583293869  15.695542978120608  21.883532900492714  14.52496992310615  44.969557582536744  -29.611461055813407  18.541661726837358  120.000000
5.80245  0.000000  0.000000  0.000000  -50.11255780992544  16.634853856168288  19.45438971109982  58.23581488258689  14.323663881370143  20.9592562969297  12.672181883157869  45.549831539906414  -28.8173160928813  18.839601441022584  120.000000
5.8599  0.000000  0.000000  0.000000  -47.83272826563897  15.913895659969256  15.924893197625298  59.47868705772885  12.568195905628722  20.144280172109887  10.635909742250616  46.08101654029703  -27.47567875177131  19.238436479131547  120.000000
5.91735  0.000000  0.000000  0.000000  -45.53641786184452  14.626793423434783  12.065241976893104  60.61261923987237  10.416295211931509  19.508623796156616  8.44404179777758  46.55395897733903  -25.4655575343827  19.647263928218983  120.000000
5.9748  0.000000  0.000000  0.000000  -43.41275745187015  12.728447033441627  8.15990992089085  61.49899819572632  7.901644086631507  19.064174540692783  6.135233388827973  46.95922383811586  -22.741441347159945  19.95679589542304  120.000000
6.03225  0.000000  0.000000  0.000000  -41.596321675227124  10.289211609784385  4.485205769398053  62.01841675928487  5.104827124733682  18.75596571895177  3.770294364082344  47.280734202685245  -19.373417551822964  20.07313777194155  120.000000
6.089700000000001  0.000000  0.000000  0.000000  -40.12932599750696  7.4795240505106815  1.2647613071690442  62.099644951332095  2.1449933364061753  18.472023695740624  1.4318950244220363  47.4800885607369  -15.552807982117555  19.94631061223243  120.000000
6.14715  0.000000  0.000000  0.000000  -38.95140542898361  4.519594529482996  -1.3458168325753526  61.74481200103682  -0.8283436389278719  18.076501920771545  -0.7900742577761031  47.467833101458936  -11.552703819574136  19.57649543884988  120.000000
6.2046  0.000000  0.000000  0.000000  -37.93544839204709  1.6298633772566546  -3.2550650337702556  61.02902845311085  -3.6464719460370745  17.453255913371702  -2.824988035591547  47.09727042258193  -7.6550563562649785  18.99967597559276  120.000000
6.26205  0.000000  0.000000  0.000000  -36.97307692072522  -0.9768567458194863  -4.429869886113807  60.06093839125643  -6.140632973990348  16.540314983298845  -4.629660111311377  46.205245969104546  -4.08209581140877  18.262657289003414  120.000000
6.3195  0.000000  0.000000  0.000000  -36.043348153503516  -3.094717646789243  -4.903972839056635  58.96967103622657  -8.168606981357131  15.34527930567013  -6.117168674562285  44.69330398380462  -0.9913358409945449  17.43326919257457  120.000000
6.37695  0.000000  0.000000  0.000000  -35.21440602229965  -4.57697232719649  -4.7843536652832475  57.89099425570059  -9.63942278428756  13.956155863753802  -7.095923335130217  42.563654207935095  1.4953922320144877  16.611139553693782  120.000000
6.4344  0.000000  0.000000  0.000000  -34.59641051734968  -5.392689503786717  -4.248217056629588  56.92328091738398  -10.523526992352284  12.50414616865355  -7.333859265873924  39.89648439782392  3.2977070497392846  15.91182451860788  120.000000
6.49185  0.000000  0.000000  0.000000  -34.24871738435217  -5.621710323597214  -3.514731470803198  56.092751488946185  -10.835182398171789  11.090389960339714  -6.688082727823723  36.81813350651872  4.398819886509608  15.42015660302497  120.000000
6.549300000000001  0.000000  0.000000  0.000000  -34.13053346033771  -5.400219653252845  -2.789985339717856  55.35443624388257  -10.605233519131305  9.779037693742326  -5.165394180135172  33.47248888714853  4.840286137479373  15.154302317590949  120.000000
6.60675  0.000000  0.000000  0.000000  -34.157226626567535  -4.873356465764402  -2.2406246889049317  54.65266625786282  -9.871264914762342  8.618207424594848  -2.8339697894445686  30.009505534439548  4.658048569590712  15.109237974805826  120.000000
6.6642  0.000000  0.000000  0.000000  -34.27107610583722  -4.185470104631514  -1.9886634287193607  53.94786451153483  -8.677208245882023  7.644651055871586  0.2866509595480425  26.57841224951727  3.813286848088259  15.26594359531056  120.000000
6.72165  0.000000  0.000000  0.000000  -34.470406082034046  -3.463203389902524  -2.114708567294629  53.21116930838643  -7.0691643652429645  6.875518385019628  4.243022600021263  23.320579798806417  2.1946615137511905  15.591634139076492  120.000000
6.7791  0.000000  0.000000  0.000000  -34.77254080644344  -2.8016887487773454  -2.612653396043401  52.42316615508051  -5.130027478176516  6.28409434005454  9.09610500632238  20.354619255074443  -0.3164371049479286  16.036637461664924  120.000000
6.83655  0.000000  0.000000  0.000000  -35.18609452904738  -2.2603093968603765  -3.3704704798769325  51.57596692495778  -3.0052661051488676  5.810268520012678  14.871469226419777  17.768999808407436  -3.786012532476819  16.526887000883157  120.000000
6.894  0.000000  0.000000  0.000000  -35.70900274791204  -1.8570252722293168  -4.245166317211436  50.68217301119  -0.8599717964834126  5.401429818385315  21.51317082117325  15.60963889349863  -8.18132786555312  16.976588743393346  120.000000
6.95145  0.000000  0.000000  0.000000  -36.31518105948122  -1.589292430727742  -5.132664245798477  49.771449221937495  1.181181533776486  5.035519623819296  28.869807417898283  13.870191093616015  -13.368023521461863  17.30413903360634  120.000000
7.008900000000001  0.000000  0.000000  0.000000  -36.96567938883297  -1.4318400433676237  -5.982155153337545  48.88041591163688  3.0564231571335085  4.717790336662503  36.74172448532196  12.51395525823739  -19.167611471866646  17.464927773845137  120.000000
7.06635  0.000000  0.000000  0.000000  -37.63304065331357  -1.3444566785633336  -6.766005943753844  48.03131398067173  4.745050870509675  4.456809813166492  44.873875869950304  11.497559002374345  -25.357960664860734  17.469107435592193  120.000000
7.1238  0.000000  0.000000  0.000000  -38.30691175309111  -1.2906862133087984  -7.466056459781795  47.233503470426776  6.245195799168484  4.249691953853659  52.96630563656699  10.778611920214251  -31.68106202539515  17.377312632602568  120.000000
7.18125  0.000000  0.000000  0.000000  -38.98586196913705  -1.2390932973090654  -8.072773060357664  46.49052304181818  7.564000471214811  4.085853611664224  60.71437261785284  10.315050334357373  -37.87234621947231  17.274889936930666  120.000000
7.2387  0.000000  0.000000  0.000000  -39.6684515775095  -1.1701705400017177  -8.579798819343239  45.802328454357394  8.712017303265243  3.952298720397206  67.84015135008201  10.062775501032268  -43.68152037253415  17.23566732287576  120.000000
7.29615  0.000000  0.000000  0.000000  -40.34376568093661  -1.0771903953053248  -8.982370708914697  45.17018364799214  9.69851713489758  3.8397036478047455  74.1430341169077  9.973843885437098  -48.91441328640171  17.295913475231874  120.000000
7.3536  0.000000  0.000000  0.000000  -40.990631808090335  -0.963087283361231  -9.278641596437332  44.599871070785525  10.531376447875807  3.7418375546694636  79.5193964145319  9.997350491349643  -53.45236552880677  17.449372662822032  120.000000
7.41105  0.000000  0.000000  0.000000  -41.58315741317199  -0.8344038991677697  -9.472092474171191  44.10145389493469  11.2189632730047  3.651892712347989  83.95624006874046  10.08344826989802  -57.25304239461014  17.662726573293586  120.000000
7.468500000000001  0.000000  0.000000  0.000000  -42.09968682981759  -0.6973823082208794  -9.571060914548074  43.68288693089517  11.770151292513805  3.563834273979842  87.50937876820113  10.187125892287819  -60.33850227665154  17.897823126099976  120.000000
7.52595  0.000000  0.000000  0.000000  -42.5292393501863  -0.5583353917989211  -9.587247384635342  43.345883940905836  12.19452202310807  3.473388170765995  90.27267586840541  10.272875608536273  -62.77323018132871  18.128006158767658  120.000000
